<svg width="529" height="524" viewBox="0 0 529 524" fill="none" xmlns="http://www.w3.org/2000/svg">
<path d="M456.112 250.069C456.112 135.513 363.186 42.6475 248.556 42.6475C133.926 42.6475 41 135.513 41 250.069C41 364.625 133.926 457.49 248.556 457.49C363.186 457.49 456.112 364.625 456.112 250.069Z" fill="#7B4AE2" fill-opacity="0.2"/>
<g filter="url(#filter0_d_208_237)">
<circle cx="459.715" cy="267.294" r="28.8272" fill="#090E16"/>
</g>
<g clip-path="url(#clip0_208_237)">
<path fill-rule="evenodd" clip-rule="evenodd" d="M471.877 252.88H447.554C446.31 252.88 445.302 253.888 445.302 255.132V279.455C445.302 280.699 446.31 281.707 447.554 281.707H471.877C473.121 281.707 474.129 280.699 474.129 279.455V255.132C474.129 253.888 473.121 252.88 471.877 252.88ZM462.251 278.565V275.455C462.815 275.928 463.428 276.282 464.09 276.519C464.751 276.755 465.419 276.874 466.093 276.874C466.489 276.874 466.834 276.838 467.129 276.767C467.424 276.695 467.671 276.597 467.869 276.47C468.066 276.344 468.214 276.195 468.311 276.023C468.408 275.852 468.457 275.665 468.457 275.464C468.457 275.192 468.379 274.949 468.224 274.735C468.068 274.522 467.856 274.324 467.587 274.143C467.317 273.961 466.998 273.786 466.628 273.618C466.259 273.449 465.86 273.278 465.432 273.103C464.342 272.649 463.53 272.095 462.995 271.441C462.46 270.786 462.193 269.996 462.193 269.069C462.193 268.343 462.339 267.72 462.631 267.198C462.922 266.677 463.32 266.247 463.822 265.91C464.325 265.573 464.907 265.326 465.568 265.167C466.23 265.008 466.93 264.929 467.669 264.929C468.396 264.929 469.039 264.972 469.6 265.06C470.161 265.147 470.678 265.282 471.152 265.463V268.369C470.918 268.207 470.664 268.065 470.388 267.942C470.112 267.819 469.829 267.717 469.537 267.636C469.245 267.555 468.955 267.495 468.666 267.456C468.378 267.417 468.104 267.397 467.844 267.397C467.488 267.397 467.163 267.431 466.872 267.499C466.58 267.568 466.333 267.663 466.132 267.786C465.931 267.909 465.776 268.057 465.665 268.228C465.555 268.4 465.5 268.593 465.5 268.807C465.5 269.04 465.562 269.249 465.685 269.434C465.808 269.618 465.983 269.793 466.21 269.958C466.437 270.124 466.713 270.286 467.037 270.444C467.361 270.603 467.728 270.767 468.136 270.935C468.694 271.169 469.195 271.416 469.639 271.679C470.083 271.941 470.464 272.238 470.782 272.568C471.1 272.898 471.343 273.276 471.511 273.7C471.68 274.125 471.764 274.619 471.764 275.183C471.764 275.96 471.617 276.613 471.322 277.141C471.027 277.669 470.626 278.097 470.12 278.424C469.615 278.751 469.026 278.986 468.355 279.129C467.684 279.271 466.975 279.342 466.23 279.342C465.464 279.342 464.736 279.278 464.046 279.148C463.355 279.018 462.757 278.824 462.251 278.565ZM461.067 267.715H457.067V279.117H453.899V267.715H449.919V265.154H461.067V267.715Z" fill="#7B4AE2" fill-opacity="0.5"/>
</g>
<g filter="url(#filter1_d_208_237)">
<circle cx="69.8272" cy="193.784" r="28.8272" fill="#090E16"/>
</g>
<path d="M80.612 188.714C80.2758 188.598 79.9276 188.489 79.569 188.385C79.6279 188.145 79.682 187.907 79.7301 187.674C80.5196 183.841 80.0034 180.754 78.2406 179.737C76.5504 178.763 73.7861 179.779 70.9943 182.209C70.7258 182.442 70.4566 182.69 70.1875 182.949C70.0082 182.777 69.8292 182.612 69.6506 182.453C66.7247 179.855 63.792 178.76 62.0309 179.78C60.3423 180.757 59.8422 183.66 60.5529 187.292C60.6215 187.643 60.7018 188.001 60.7925 188.365C60.3774 188.483 59.9767 188.609 59.5933 188.742C56.163 189.938 53.9723 191.813 53.9723 193.757C53.9723 195.765 56.324 197.779 59.8969 199C60.1789 199.097 60.4715 199.188 60.773 199.274C60.6751 199.668 60.59 200.054 60.5185 200.431C59.8409 204 60.3701 206.834 62.0542 207.805C63.7938 208.808 66.7133 207.777 69.5562 205.292C69.7808 205.096 70.0063 204.887 70.2322 204.669C70.5251 204.951 70.8174 205.218 71.1082 205.468C73.8618 207.838 76.5815 208.795 78.2641 207.821C80.0019 206.814 80.5667 203.77 79.8334 200.066C79.7774 199.783 79.7123 199.494 79.6391 199.2C79.8441 199.14 80.0454 199.077 80.2416 199.012C83.956 197.781 86.3727 195.792 86.3727 193.757C86.3727 191.806 84.1113 189.919 80.612 188.714ZM79.8063 197.698C79.6292 197.757 79.4474 197.813 79.2621 197.868C78.8521 196.57 78.2987 195.19 77.6214 193.764C78.2677 192.371 78.7997 191.009 79.1983 189.719C79.5297 189.815 79.8514 189.916 80.1614 190.023C83.1597 191.055 84.9886 192.581 84.9886 193.757C84.9886 195.009 83.0134 196.635 79.8063 197.698ZM78.4756 200.335C78.7998 201.973 78.8461 203.454 78.6314 204.611C78.4384 205.651 78.0503 206.345 77.5705 206.623C76.5494 207.214 74.3658 206.445 72.0109 204.419C71.7409 204.187 71.469 203.939 71.1962 203.676C72.1091 202.678 73.0216 201.517 73.9121 200.228C75.4784 200.089 76.9582 199.861 78.3002 199.551C78.3663 199.818 78.425 200.079 78.4756 200.335ZM65.0183 206.521C64.0207 206.873 63.2261 206.883 62.7458 206.606C61.7238 206.017 61.299 203.741 61.8785 200.689C61.9449 200.339 62.0239 199.98 62.115 199.613C63.4422 199.907 64.9112 200.118 66.4813 200.245C67.3778 201.507 68.3166 202.666 69.2627 203.681C69.056 203.881 68.8501 204.071 68.6453 204.25C67.3882 205.349 66.1285 206.128 65.0183 206.521ZM60.3446 197.69C58.7647 197.15 57.46 196.449 56.5657 195.683C55.7621 194.995 55.3563 194.311 55.3563 193.757C55.3563 192.577 57.1153 191.072 60.0489 190.049C60.4049 189.925 60.7775 189.808 61.1642 189.699C61.5696 191.017 62.1015 192.396 62.7433 193.791C62.0932 195.206 61.5538 196.607 61.1443 197.941C60.8687 197.862 60.6016 197.778 60.3446 197.69ZM61.9113 187.026C61.3024 183.914 61.7068 181.567 62.7244 180.978C63.8083 180.35 66.2053 181.245 68.7316 183.488C68.893 183.631 69.0552 183.782 69.2177 183.937C68.2763 184.948 67.3461 186.098 66.4576 187.352C64.9338 187.494 63.4751 187.721 62.134 188.024C62.0497 187.685 61.975 187.352 61.9113 187.026ZM75.8874 190.477C75.5668 189.923 75.2376 189.383 74.9021 188.857C75.9359 188.988 76.9263 189.161 77.8565 189.373C77.5772 190.268 77.2292 191.204 76.8195 192.163C76.5256 191.605 76.2147 191.043 75.8874 190.477ZM70.188 184.926C70.8264 185.618 71.4657 186.39 72.0946 187.228C71.4609 187.198 70.8194 187.182 70.1725 187.182C69.5318 187.182 68.8949 187.197 68.2652 187.227C68.8947 186.397 69.5395 185.626 70.188 184.926ZM64.452 190.487C64.1318 191.042 63.8267 191.602 63.5374 192.162C63.1343 191.206 62.7895 190.266 62.5078 189.359C63.4323 189.152 64.4181 188.983 65.4453 188.854C65.105 189.385 64.7732 189.93 64.452 190.487V190.487ZM65.4749 198.758C64.4136 198.64 63.4129 198.479 62.4887 198.278C62.7749 197.354 63.1274 196.394 63.539 195.418C63.829 195.978 64.1353 196.538 64.4575 197.094H64.4576C64.7858 197.661 65.1258 198.217 65.4749 198.758ZM70.2263 202.685C69.5702 201.978 68.9159 201.195 68.2768 200.352C68.8972 200.377 69.5297 200.389 70.1725 200.389C70.8329 200.389 71.4858 200.374 72.1283 200.346C71.4974 201.203 70.8604 201.987 70.2263 202.685ZM76.8327 195.368C77.2657 196.355 77.6308 197.31 77.9207 198.218C76.9812 198.432 75.967 198.605 74.8983 198.733C75.2346 198.2 75.5667 197.65 75.8929 197.085C76.223 196.512 76.5364 195.939 76.8327 195.368ZM74.694 196.393C74.1875 197.271 73.6675 198.11 73.1396 198.901C72.1782 198.97 71.1849 199.005 70.1725 199.005C69.1642 199.005 68.1834 198.974 67.239 198.912C66.6898 198.111 66.1586 197.27 65.6553 196.401H65.6554C65.1535 195.534 64.6915 194.66 64.273 193.79C64.6914 192.919 65.1522 192.044 65.6512 191.178L65.6511 191.178C66.1515 190.311 66.6781 189.474 67.2222 188.677C68.1857 188.604 69.1738 188.566 70.1724 188.566H70.1725C71.1756 188.566 72.165 188.605 73.1283 188.678C73.664 189.469 74.1871 190.303 74.6894 191.171C75.1974 192.048 75.6641 192.918 76.0862 193.77C75.6654 194.638 75.1997 195.516 74.694 196.393ZM77.5493 180.937C78.6343 181.562 79.0562 184.086 78.3745 187.395C78.331 187.606 78.2821 187.821 78.2289 188.039C76.8846 187.729 75.425 187.498 73.8967 187.354C73.0064 186.087 72.0838 184.934 71.1578 183.936C71.4067 183.697 71.6554 183.468 71.903 183.253C74.295 181.171 76.5307 180.349 77.5493 180.937ZM70.1725 190.864C71.7704 190.864 73.0658 192.159 73.0658 193.757C73.0658 195.355 71.7704 196.65 70.1725 196.65C68.5746 196.65 67.2792 195.355 67.2792 193.757C67.2792 192.159 68.5746 190.864 70.1725 190.864Z" fill="#7B4AE2" fill-opacity="0.5"/>
<g filter="url(#filter2_d_208_237)">
<circle cx="69.8272" cy="378.278" r="28.8272" fill="#090E16"/>
</g>
<g clip-path="url(#clip1_208_237)">
<path fill-rule="evenodd" clip-rule="evenodd" d="M65.0602 363.865C62.4081 363.865 60.2557 366.018 60.2557 368.67C60.2557 371.322 62.4081 373.474 65.0602 373.474C62.4081 373.474 60.2557 375.627 60.2557 378.279C60.2557 380.931 62.4081 383.083 65.0602 383.083C62.4081 383.083 60.2557 385.236 60.2557 387.888C60.2557 390.54 62.4081 392.692 65.0602 392.692C67.7124 392.692 69.8648 390.54 69.8648 387.888L69.8648 378.279C69.8648 380.931 72.0172 383.083 74.6693 383.083C77.3214 383.083 79.4739 380.931 79.4739 378.279C79.4739 375.627 77.3214 373.474 74.6693 373.474C77.3214 373.474 79.4739 371.322 79.4739 368.67C79.4739 366.018 77.3214 363.865 74.6693 363.865H65.0602ZM74.6693 373.474H69.8648L69.8648 378.279C69.8648 375.627 72.0172 373.474 74.6693 373.474Z" fill="#7B4AE2" fill-opacity="0.5"/>
</g>
<g filter="url(#filter3_f_208_237)">
<circle cx="249.997" cy="246.394" r="205.394" fill="#7B4AE2" fill-opacity="0.2"/>
</g>
<g filter="url(#filter4_i_208_237)">
<path fill-rule="evenodd" clip-rule="evenodd" d="M212.172 326.344C241.76 342.115 274.939 340.363 300.936 326.343V360.893L301.229 360.885V381.171H212.172V326.344Z" fill="#BB7D52"/>
<path fill-rule="evenodd" clip-rule="evenodd" d="M212.171 355.132C241.759 370.904 274.939 369.151 300.936 355.132V377.164L320.926 376.666L321.174 376.676C321.174 429.782 194.213 437.731 194.213 376.595L194.708 376.573L212.171 376.662V355.132Z" fill="#D08B5B"/>
<path fill-rule="evenodd" clip-rule="evenodd" d="M160.194 136.874C230.803 91.9157 321.137 107.903 351.657 137.55C360.481 158.783 361.104 179.263 358.508 201.247C364.469 196.97 371.558 197.949 377.143 201.932C379.406 220.175 385.467 256.261 358.306 257.827C348.956 374.235 177.624 388.724 154.465 258.207C127.545 257.279 134.804 220.808 136.486 203.294C142.944 198.381 150.319 200.854 154.897 203.052L160.194 136.874Z" fill="#D08B5B"/>
<path fill-rule="evenodd" clip-rule="evenodd" d="M149.706 186.173C150.077 187.192 148.872 188.211 145.256 190.063C137.773 193.801 137.117 194.578 137.098 200.433V200.716C137.098 208.589 138.303 210.626 143.495 211.368C148.779 212.109 152.117 213.312 153.045 214.795C153.414 215.443 153.786 218.408 153.786 221.464C153.786 228.041 155.825 237.304 158.329 242.12C165.374 255.83 183.73 262.777 205.979 260.184C216.919 258.794 223.316 256.664 230.269 252.032C240.652 245.085 245.473 236.193 246.214 222.206C246.771 213.683 246.771 213.683 249.552 212.757C253.168 211.461 262.16 211.461 265.869 212.757C268.742 213.776 268.742 213.776 268.742 220.353C268.742 227.948 270.689 237.026 273.284 242.122C280.33 255.83 298.686 262.777 320.843 260.184C331.876 258.794 338.272 256.664 345.226 252.033C355.608 245.086 360.43 235.915 361.357 221.557C362.005 212.109 361.543 212.572 371.74 211.275C376.931 210.627 378.137 208.589 378.137 200.623C378.137 194.324 377.116 193.12 368.495 189.415L363.303 187.192L355.237 184.692L349.304 183.395C346.06 182.746 341.888 182.19 340.126 182.097C338.272 182.097 333.637 180.43 329.002 178.114C321.307 174.316 320.936 174.224 311.851 174.224C301.468 174.224 294.144 176.354 288.21 180.986C286.449 182.375 282.741 184.135 280.145 184.783C277.456 185.433 272.45 187.192 269.02 188.674C260.028 192.472 255.392 192.287 243.897 187.655C238.891 185.618 234.163 183.95 233.514 183.95C232.864 183.95 230.732 182.654 228.786 181.079C222.667 176.262 215.806 174.224 205.238 174.224C196.245 174.224 195.689 174.409 187.717 178.207C182.339 180.801 178.167 182.097 175.664 182.097C173.624 182.19 169.174 182.746 165.837 183.487L149.706 186.173ZM223.872 198.122C234.996 201.735 238.426 206.643 238.519 219.056C238.611 225.633 238.241 227.764 236.48 231.375C230.361 243.88 212.932 250.921 192.258 249.346C176.406 248.049 168.247 243.603 163.89 233.784C161.109 227.393 160.738 212.109 163.333 207.384C165.744 202.938 170.38 199.882 177.981 197.844C183.915 196.269 187.16 196.084 201.993 196.269C214.786 196.547 220.349 197.01 223.872 198.122ZM338.828 198.122C349.953 201.735 353.383 206.643 353.476 219.056C353.569 225.633 353.197 227.764 351.436 231.375C345.317 243.88 327.888 250.921 307.215 249.346C291.362 248.049 283.203 243.603 278.846 233.784C276.065 227.393 275.695 212.109 278.29 207.384C280.701 202.938 285.336 199.882 292.938 197.844C298.871 196.269 302.116 196.084 316.948 196.269C329.742 196.547 335.305 197.01 338.828 198.122Z" fill="#A66F49"/>
<path fill-rule="evenodd" clip-rule="evenodd" d="M232.771 46.3312L226.931 50.1293L223.964 47.2575C219.329 42.7189 217.104 43.5526 213.581 51.0556C211.449 55.6869 208.761 56.243 204.125 53.1859C202.271 51.8893 199.953 50.7776 199.026 50.7776C196.987 50.7776 195.04 53.9269 194.205 58.0952C193.557 61.5226 191.332 64.6719 189.477 64.6719C188.829 64.6719 186.418 63.8382 184.101 62.8191C180.577 61.2445 179.465 61.1518 177.518 61.9855C175.293 63.0045 175.108 63.5601 175.108 69.6739C175.108 74.1203 174.459 77.5476 173.254 80.1413C171.492 84.0316 171.399 84.1243 167.042 84.1243C159.811 84.1243 156.381 87.7365 159.904 91.72C161.758 93.6649 160.552 95.703 156.937 96.5366C150.262 98.204 148.315 102.465 151.931 107.004C154.434 110.246 154.341 110.709 150.355 112.562C146.183 114.599 145.535 116.915 148.223 119.787C150.262 122.01 150.262 122.102 149.15 134.33C148.038 146.187 148.408 179.255 149.706 182.683C150.077 183.702 148.872 184.721 145.256 186.573C137.654 190.371 137.098 191.112 137.098 197.226C137.098 205.099 138.303 207.137 143.495 207.878C148.779 208.619 152.117 209.823 153.044 211.305C153.414 211.954 153.785 214.918 153.785 217.975C153.785 224.551 155.825 233.814 158.328 238.631C165.374 252.34 183.73 259.287 205.98 256.694C216.919 255.304 223.316 253.174 230.269 248.543C240.652 241.595 245.473 232.703 246.215 218.716C246.771 210.194 246.771 210.194 249.552 209.268C253.168 207.971 262.16 207.971 265.868 209.268C268.742 210.287 268.742 210.287 268.742 216.863C268.742 224.459 270.689 233.537 273.285 238.632C280.331 252.341 298.686 259.288 320.843 256.695C331.876 255.305 338.272 253.175 345.226 248.543C355.609 241.596 360.43 232.426 361.357 218.068C362.005 208.62 361.542 209.083 371.74 207.786C376.931 207.138 378.137 205.099 378.137 197.134C378.137 190.835 377.116 189.631 368.495 185.926L363.303 183.702V174.439C363.21 158.599 360.986 147.391 357.092 143.779C355.794 142.575 352.92 140.722 350.602 139.61C346.987 137.85 346.245 137.758 345.133 138.962C344.02 140.074 344.298 141.093 347.08 146.65C350.51 153.505 353.569 165.084 354.589 175.088L355.238 181.202L349.304 179.905C346.059 179.256 341.888 178.701 340.126 178.608C338.272 178.608 333.637 176.941 329.002 174.625C321.307 170.827 320.936 170.734 311.851 170.734C301.467 170.734 294.143 172.865 288.211 177.496C286.449 178.886 282.741 180.646 280.145 181.294C277.457 181.943 272.45 183.703 269.02 185.185C260.028 188.983 255.392 188.797 243.896 184.166C238.891 182.128 234.163 180.461 233.513 180.461C232.865 180.461 230.732 179.164 228.785 177.589C222.667 172.772 215.806 170.734 205.238 170.734C196.245 170.734 195.689 170.92 187.716 174.717C182.339 177.311 178.167 178.608 175.664 178.608C173.625 178.701 169.175 179.256 165.837 179.997C156.381 182.035 157.123 183.239 157.864 167.678C158.421 154.339 160.182 143.038 162.222 139.147C164.54 134.794 182.895 125.438 201.066 119.325C223.594 111.822 248.903 108.95 277.457 110.895C301.931 112.47 308.421 114.508 335.491 129.051C344.947 134.145 353.754 138.221 355.794 138.499C359.132 138.962 359.409 138.777 360.429 135.998C362.654 129.606 360.893 113.489 357.184 106.171C354.404 100.799 354.218 98.7606 355.794 93.203C356.906 89.3122 356.906 88.4785 355.516 86.441C354.218 84.4956 353.291 84.1254 349.583 84.1254C347.172 84.218 343.464 84.5883 341.332 84.959C337.531 85.7 337.438 85.7 337.902 83.2917C339.756 74.214 337.531 72.1759 328.538 74.4916C325.664 75.2325 322.976 75.696 322.79 75.4179C322.512 75.1404 322.79 72.3613 323.439 69.3047C324.551 64.3027 324.459 63.469 323.161 62.0792C321.77 60.7826 320.936 60.7826 315.559 61.8017C306.937 63.5617 303.692 62.728 300.54 57.9109C297.296 53.1869 294.329 51.5196 291.27 52.7235C289.601 53.3718 287.84 53.0942 284.502 51.6123C280.979 50.1303 278.939 49.7596 275.788 50.2225C272.543 50.7786 270.781 50.4079 267.722 48.8332C264.57 47.2586 262.809 46.9805 259.008 47.4434C254.929 47.9069 253.445 47.5361 248.717 45.2205C245.751 43.7385 242.228 42.5341 240.93 42.4414C239.632 42.4414 236.016 44.2014 232.772 46.3322L232.771 46.3312ZM223.871 194.632C234.996 198.245 238.426 203.154 238.519 215.566C238.612 222.143 238.241 224.274 236.48 227.886C230.361 240.391 212.932 247.431 192.258 245.857C176.406 244.56 168.247 240.114 163.89 230.294C161.109 223.903 160.738 208.619 163.334 203.895C165.744 199.449 170.38 196.392 177.981 194.354C183.915 192.779 187.16 192.594 201.993 192.779C214.786 193.057 220.348 193.52 223.871 194.632ZM338.828 194.632C349.953 198.245 353.383 203.154 353.476 215.566C353.568 222.143 353.197 224.274 351.436 227.886C345.317 240.391 327.889 247.431 307.215 245.857C291.362 244.56 283.204 240.114 278.847 230.294C276.065 223.903 275.694 208.619 278.29 203.895C280.701 199.449 285.336 196.392 292.938 194.354C298.871 192.779 302.116 192.594 316.949 192.779C329.742 193.057 335.305 193.52 338.828 194.632Z" fill="#2C1B18"/>
<path fill-rule="evenodd" clip-rule="evenodd" d="M194.02 205.841C189.106 208.156 183.451 213.992 183.451 216.771C183.451 218.901 184.934 218.901 187.808 216.586C195.317 210.657 211.263 210.657 219.421 216.493C220.997 217.512 222.666 218.438 223.222 218.438C225.169 218.438 224.242 215.103 221.276 211.583C217.382 206.766 210.429 203.617 203.846 203.617C200.416 203.617 197.172 204.358 194.02 205.84V205.841Z" fill="#533824"/>
<path fill-rule="evenodd" clip-rule="evenodd" d="M301.56 205.841C296.647 208.156 290.991 213.992 290.991 216.771C290.991 218.901 292.474 218.901 295.349 216.586C302.858 210.657 318.803 210.657 326.962 216.493C328.537 217.512 330.206 218.438 330.763 218.438C332.709 218.438 331.782 215.103 328.816 211.583C324.922 206.766 317.969 203.617 311.387 203.617C307.957 203.617 304.712 204.358 301.56 205.84L301.56 205.841Z" fill="#533824"/>
<path fill-rule="evenodd" clip-rule="evenodd" d="M236.016 250.118C237.036 254.101 240.003 257.25 245.194 259.751C249.366 261.789 251.498 262.252 257.617 262.252C263.735 262.252 265.868 261.789 270.039 259.751C275.231 257.25 278.197 254.101 279.217 250.118L279.681 248.08H257.617H235.552L236.016 250.118Z" fill="#AF754C"/>
<path fill-rule="evenodd" clip-rule="evenodd" d="M149.706 182.682C150.077 183.701 148.872 184.72 145.256 186.573C137.773 190.311 137.117 191.088 137.098 196.943V197.226C137.098 205.099 138.303 207.136 143.495 207.878C148.779 208.619 152.117 209.823 153.045 211.305C153.414 211.953 153.786 214.918 153.786 217.974C153.786 224.551 155.825 233.815 158.329 238.631C165.374 252.34 183.73 259.287 205.979 256.694C216.919 255.304 223.316 253.174 230.269 248.542C240.652 241.595 245.473 232.703 246.214 218.716C246.771 210.193 246.771 210.193 249.552 209.267C253.168 207.971 262.16 207.971 265.869 209.267C268.742 210.286 268.742 210.286 268.742 216.863C268.742 224.458 270.689 233.537 273.284 238.632C280.33 252.34 298.686 259.287 320.843 256.694C331.876 255.305 338.272 253.174 345.226 248.543C355.608 241.596 360.43 232.425 361.357 218.068C362.005 208.619 361.543 209.083 371.74 207.786C376.931 207.137 378.137 205.099 378.137 197.133C378.137 190.834 377.116 189.631 368.495 185.925L363.303 183.701L355.237 181.202L349.304 179.904C346.06 179.256 341.888 178.7 340.126 178.607C338.272 178.607 333.637 176.94 329.002 174.625C321.307 170.827 320.936 170.734 311.851 170.734C301.468 170.734 294.144 172.865 288.21 177.496C286.449 178.885 282.741 180.645 280.145 181.294C277.456 181.942 272.45 183.702 269.02 185.184C260.028 188.982 255.392 188.797 243.897 184.165C238.891 182.128 234.163 180.46 233.514 180.46C232.864 180.46 230.732 179.164 228.786 177.589C222.667 172.772 215.806 170.734 205.238 170.734C196.245 170.734 195.689 170.919 187.717 174.717C182.339 177.311 178.167 178.607 175.664 178.607C173.624 178.7 169.174 179.256 165.837 179.997L149.706 182.682ZM223.872 194.632C234.996 198.245 238.426 203.154 238.519 215.566C238.611 222.143 238.241 224.274 236.48 227.886C230.361 240.391 212.932 247.431 192.258 245.856C176.406 244.56 168.247 240.113 163.89 230.295C161.109 223.903 160.738 208.619 163.333 203.895C165.744 199.448 170.38 196.392 177.981 194.354C183.915 192.779 187.16 192.594 201.993 192.779C214.786 193.056 220.349 193.52 223.872 194.632ZM338.828 194.632C349.953 198.245 353.383 203.154 353.476 215.566C353.569 222.143 353.197 224.274 351.436 227.886C345.317 240.391 327.888 247.431 307.215 245.856C291.362 244.56 283.203 240.113 278.846 230.295C276.065 223.903 275.695 208.619 278.29 203.895C280.701 199.448 285.336 196.392 292.938 194.354C298.871 192.779 302.116 192.594 316.948 192.779C329.742 193.056 335.305 193.52 338.828 194.632Z" fill="#090E16"/>
<path fill-rule="evenodd" clip-rule="evenodd" d="M231.751 287.354C232.957 295.043 238.797 302.917 246.028 306.622C251.312 309.401 261.047 309.956 266.61 307.826C274.953 304.584 282.184 295.877 283.482 287.354H231.751Z" fill="#3E291B"/>
<path fill-rule="evenodd" clip-rule="evenodd" d="M230.959 268.046C229.547 268.559 226.082 270.226 223.258 271.829C220.434 273.367 217.225 275.035 216.134 275.484C213.888 276.381 207.278 276.638 205.161 275.933C203.941 275.547 203.684 275.676 203.684 276.894C203.684 278.882 207.856 282.601 212.412 284.782C218.317 287.603 226.017 287.026 235.644 282.986C239.36 281.892 244.735 278.96 249.056 277.472C258.578 274.108 263.441 276.039 272.032 279.716L279.54 282.986C289.167 287.026 296.868 287.603 302.773 284.782C307.393 282.601 311.692 278.69 311.372 277.022C311.243 276.381 310.666 275.997 310.152 276.125C309.639 276.253 307.264 276.317 304.826 276.317C300.975 276.253 299.82 275.933 295.199 273.56C282.685 267.02 284.482 267.533 275.24 267.533C267.861 267.533 266.384 267.789 262.277 269.264L257.592 270.931L252.971 269.264C247.324 267.276 235.323 266.635 230.959 268.046Z" fill="#2C1B18" fill-opacity="0.301961"/>
<path d="M290.325 466.041L296.279 461.205C297.658 460.084 299.686 460.293 300.807 461.672C301.929 463.05 301.72 465.076 300.34 466.196L297.459 468.537L318.377 486.147C319.757 487.268 319.966 489.294 318.844 490.672C318.208 491.454 317.28 491.859 316.344 491.859C315.631 491.859 314.912 491.624 314.315 491.138L290.325 471.033C289.574 470.422 289.137 469.505 289.137 468.537C289.137 467.569 289.574 466.652 290.325 466.041Z" fill="#7B4AE2"/>
<path d="M316.761 436.49C318.47 436.504 319.845 437.9 319.831 439.608L319.565 488.791C319.551 490.499 318.154 491.873 316.445 491.859C316.012 491.856 315.601 491.764 315.228 491.6C314.129 491.119 313.365 490.017 313.375 488.742L313.641 439.559C313.655 437.85 315.052 436.477 316.761 436.49Z" fill="#7B4AE2"/>
<path d="M330.347 470.323L332.546 468.537L324.715 462.174C323.335 461.054 323.127 459.028 324.248 457.649C325.369 456.271 327.397 456.062 328.777 457.183L339.679 466.041C340.431 466.652 340.868 467.569 340.868 468.537C340.868 469.505 340.431 470.421 339.679 471.032L334.409 475.314C333.812 475.799 333.094 476.035 332.38 476.035C331.444 476.035 330.516 475.629 329.88 474.848C328.759 473.47 328.968 471.444 330.347 470.323Z" fill="#C83267"/>
<path fill-rule="evenodd" clip-rule="evenodd" d="M193.648 376.628C166.3 379.29 141.455 389.475 120.781 406.451C102.991 420.997 98.0282 432.557 85.0039 449.022C111.541 476.531 147.226 499.84 186.14 512.713C212.097 521.247 229.804 524 257.616 524C285.429 524 303.136 521.247 329.094 512.713C368.352 500.169 401.421 479.611 431.231 450.105C410.814 423.774 402.41 406.516 369.514 390.3C355.7 383.419 339.476 378.464 327.054 377.179L321.203 376.652L320.925 376.646L320.286 381.033C317.505 401.955 291.27 417.371 258.544 417.371C225.819 417.371 200.046 402.138 196.708 380.942C196.06 376.721 195.781 376.353 193.649 376.628H193.648Z" fill="#090E16"/>
<path fill-rule="evenodd" clip-rule="evenodd" d="M210.612 339.343L210.226 339.222C209.168 338.889 214.361 336.52 216.201 335.64C221.61 333.056 228.664 333.584 237.482 337.285C240.886 338.288 245.81 340.972 249.769 342.336C258.49 345.418 262.946 343.649 270.815 340.281L277.693 337.285C286.511 333.584 293.566 333.056 298.975 335.64C300.788 336.496 302.579 337.608 303.943 338.795L304.353 339.152C288.569 351.183 237.972 357.164 210.612 339.343Z" fill="#2C1B18" fill-opacity="0.501961"/>
</g>
<path d="M363.326 449.766C363.913 449.653 364.301 449.085 364.135 448.511C363.431 446.079 361.957 443.927 359.92 442.387C357.594 440.629 354.699 439.794 351.793 440.043C348.887 440.292 346.176 441.607 344.183 443.734C342.19 445.862 341.057 448.651 341.002 451.564C340.947 454.477 341.974 457.307 343.884 459.508C345.795 461.709 348.454 463.126 351.349 463.484C354.243 463.842 357.168 463.117 359.559 461.448C361.653 459.987 363.207 457.892 364.003 455.488C364.191 454.921 363.824 454.338 363.242 454.204C362.661 454.069 362.087 454.434 361.888 454.996C361.22 456.882 359.977 458.523 358.321 459.679C356.368 461.042 353.979 461.634 351.614 461.342C349.25 461.049 347.078 459.892 345.517 458.094C343.957 456.296 343.118 453.984 343.163 451.605C343.208 449.225 344.134 446.947 345.761 445.209C347.389 443.471 349.603 442.397 351.977 442.194C354.351 441.991 356.716 442.673 358.616 444.109C360.227 445.326 361.407 447.013 362.003 448.923C362.18 449.492 362.74 449.878 363.326 449.766Z" fill="white" fill-opacity="0.69"/>
<rect x="348.906" y="450.961" width="14.868" height="1.768" rx="0.884" fill="white" fill-opacity="0.69"/>
<rect x="348.906" y="454.144" width="14.868" height="1.768" rx="0.884" fill="white" fill-opacity="0.69"/>
<defs>
<filter id="filter0_d_208_237" x="390.638" y="201.436" width="138.154" height="138.154" filterUnits="userSpaceOnUse" color-interpolation-filters="sRGB">
<feFlood flood-opacity="0" result="BackgroundImageFix"/>
<feColorMatrix in="SourceAlpha" type="matrix" values="0 0 0 0 0 0 0 0 0 0 0 0 0 0 0 0 0 0 127 0" result="hardAlpha"/>
<feOffset dy="3.22"/>
<feGaussianBlur stdDeviation="20.125"/>
<feComposite in2="hardAlpha" operator="out"/>
<feColorMatrix type="matrix" values="0 0 0 0 0 0 0 0 0 0 0 0 0 0 0 0 0 0 0.5 0"/>
<feBlend mode="normal" in2="BackgroundImageFix" result="effect1_dropShadow_208_237"/>
<feBlend mode="normal" in="SourceGraphic" in2="effect1_dropShadow_208_237" result="shape"/>
</filter>
<filter id="filter1_d_208_237" x="0.75" y="127.927" width="138.154" height="138.154" filterUnits="userSpaceOnUse" color-interpolation-filters="sRGB">
<feFlood flood-opacity="0" result="BackgroundImageFix"/>
<feColorMatrix in="SourceAlpha" type="matrix" values="0 0 0 0 0 0 0 0 0 0 0 0 0 0 0 0 0 0 127 0" result="hardAlpha"/>
<feOffset dy="3.22"/>
<feGaussianBlur stdDeviation="20.125"/>
<feComposite in2="hardAlpha" operator="out"/>
<feColorMatrix type="matrix" values="0 0 0 0 0 0 0 0 0 0 0 0 0 0 0 0 0 0 0.5 0"/>
<feBlend mode="normal" in2="BackgroundImageFix" result="effect1_dropShadow_208_237"/>
<feBlend mode="normal" in="SourceGraphic" in2="effect1_dropShadow_208_237" result="shape"/>
</filter>
<filter id="filter2_d_208_237" x="0.75" y="312.421" width="138.154" height="138.154" filterUnits="userSpaceOnUse" color-interpolation-filters="sRGB">
<feFlood flood-opacity="0" result="BackgroundImageFix"/>
<feColorMatrix in="SourceAlpha" type="matrix" values="0 0 0 0 0 0 0 0 0 0 0 0 0 0 0 0 0 0 127 0" result="hardAlpha"/>
<feOffset dy="3.22"/>
<feGaussianBlur stdDeviation="20.125"/>
<feComposite in2="hardAlpha" operator="out"/>
<feColorMatrix type="matrix" values="0 0 0 0 0 0 0 0 0 0 0 0 0 0 0 0 0 0 0.5 0"/>
<feBlend mode="normal" in2="BackgroundImageFix" result="effect1_dropShadow_208_237"/>
<feBlend mode="normal" in="SourceGraphic" in2="effect1_dropShadow_208_237" result="shape"/>
</filter>
<filter id="filter3_f_208_237" x="4.35339" y="0.75" width="491.288" height="491.288" filterUnits="userSpaceOnUse" color-interpolation-filters="sRGB">
<feFlood flood-opacity="0" result="BackgroundImageFix"/>
<feBlend mode="normal" in="SourceGraphic" in2="BackgroundImageFix" result="shape"/>
<feGaussianBlur stdDeviation="20.125" result="effect1_foregroundBlur_208_237"/>
</filter>
<filter id="filter4_i_208_237" x="85.0039" y="42.4414" width="346.227" height="484.778" filterUnits="userSpaceOnUse" color-interpolation-filters="sRGB">
<feFlood flood-opacity="0" result="BackgroundImageFix"/>
<feBlend mode="normal" in="SourceGraphic" in2="BackgroundImageFix" result="shape"/>
<feColorMatrix in="SourceAlpha" type="matrix" values="0 0 0 0 0 0 0 0 0 0 0 0 0 0 0 0 0 0 127 0" result="hardAlpha"/>
<feOffset dy="3.22"/>
<feGaussianBlur stdDeviation="1.61"/>
<feComposite in2="hardAlpha" operator="arithmetic" k2="-1" k3="1"/>
<feColorMatrix type="matrix" values="0 0 0 0 0 0 0 0 0 0 0 0 0 0 0 0 0 0 0.25 0"/>
<feBlend mode="normal" in2="shape" result="effect1_innerShadow_208_237"/>
</filter>
<clipPath id="clip0_208_237">
<rect width="28.8272" height="28.8272" fill="white" transform="translate(445.302 252.88)"/>
</clipPath>
<clipPath id="clip1_208_237">
<rect width="28.8272" height="28.8272" fill="white" transform="translate(55.4136 363.865)"/>
</clipPath>
</defs>
</svg>
